<svg width="23" height="13" viewBox="0 0 23 13" fill="none" xmlns="http://www.w3.org/2000/svg">
<path d="M6.99219 5.40625V7.14062C6.99219 8.07292 6.91927 8.85938 6.77344 9.5C6.63281 10.1406 6.42969 10.6562 6.16406 11.0469C5.89844 11.4375 5.57812 11.7214 5.20312 11.8984C4.83333 12.0703 4.41667 12.1562 3.95312 12.1562C3.58854 12.1562 3.2474 12.1016 2.92969 11.9922C2.61719 11.8828 2.33594 11.7083 2.08594 11.4688C1.83594 11.224 1.6224 10.9062 1.44531 10.5156C1.26823 10.125 1.13281 9.65104 1.03906 9.09375C0.945312 8.53646 0.898438 7.88542 0.898438 7.14062V5.40625C0.898438 4.47396 0.971354 3.69271 1.11719 3.0625C1.26302 2.43229 1.46875 1.92708 1.73438 1.54688C2.00521 1.16146 2.32552 0.885417 2.69531 0.71875C3.07031 0.552083 3.48698 0.46875 3.94531 0.46875C4.3151 0.46875 4.65625 0.523438 4.96875 0.632812C5.28646 0.736979 5.56771 0.90625 5.8125 1.14062C6.0625 1.36979 6.27604 1.67708 6.45312 2.0625C6.63021 2.44271 6.76302 2.90885 6.85156 3.46094C6.94531 4.01302 6.99219 4.66146 6.99219 5.40625ZM5.61719 7.375V5.16406C5.61719 4.65365 5.59375 4.20573 5.54688 3.82031C5.5 3.42969 5.43229 3.09635 5.34375 2.82031C5.25521 2.54427 5.14062 2.32031 5 2.14844C4.86458 1.97656 4.70833 1.85156 4.53125 1.77344C4.35417 1.6901 4.15885 1.64844 3.94531 1.64844C3.67969 1.64844 3.44271 1.71354 3.23438 1.84375C3.03125 1.96875 2.85677 2.16927 2.71094 2.44531C2.57031 2.72135 2.46354 3.08333 2.39062 3.53125C2.31771 3.97917 2.28125 4.52344 2.28125 5.16406V7.375C2.28125 7.88542 2.30469 8.33594 2.35156 8.72656C2.40365 9.11719 2.47396 9.45573 2.5625 9.74219C2.65625 10.0234 2.77083 10.2552 2.90625 10.4375C3.04167 10.6198 3.19792 10.7552 3.375 10.8438C3.55208 10.9271 3.74479 10.9688 3.95312 10.9688C4.22917 10.9688 4.46875 10.901 4.67188 10.7656C4.88021 10.6302 5.05469 10.4193 5.19531 10.1328C5.33594 9.84115 5.4401 9.46875 5.50781 9.01562C5.58073 8.55729 5.61719 8.01042 5.61719 7.375ZM14.8984 5.40625V7.14062C14.8984 8.07292 14.8255 8.85938 14.6797 9.5C14.5391 10.1406 14.3359 10.6562 14.0703 11.0469C13.8047 11.4375 13.4844 11.7214 13.1094 11.8984C12.7396 12.0703 12.3229 12.1562 11.8594 12.1562C11.4948 12.1562 11.1536 12.1016 10.8359 11.9922C10.5234 11.8828 10.2422 11.7083 9.99219 11.4688C9.74219 11.224 9.52865 10.9062 9.35156 10.5156C9.17448 10.125 9.03906 9.65104 8.94531 9.09375C8.85156 8.53646 8.80469 7.88542 8.80469 7.14062V5.40625C8.80469 4.47396 8.8776 3.69271 9.02344 3.0625C9.16927 2.43229 9.375 1.92708 9.64062 1.54688C9.91146 1.16146 10.2318 0.885417 10.6016 0.71875C10.9766 0.552083 11.3932 0.46875 11.8516 0.46875C12.2214 0.46875 12.5625 0.523438 12.875 0.632812C13.1927 0.736979 13.474 0.90625 13.7188 1.14062C13.9688 1.36979 14.1823 1.67708 14.3594 2.0625C14.5365 2.44271 14.6693 2.90885 14.7578 3.46094C14.8516 4.01302 14.8984 4.66146 14.8984 5.40625ZM13.5234 7.375V5.16406C13.5234 4.65365 13.5 4.20573 13.4531 3.82031C13.4062 3.42969 13.3385 3.09635 13.25 2.82031C13.1615 2.54427 13.0469 2.32031 12.9062 2.14844C12.7708 1.97656 12.6146 1.85156 12.4375 1.77344C12.2604 1.6901 12.0651 1.64844 11.8516 1.64844C11.5859 1.64844 11.349 1.71354 11.1406 1.84375C10.9375 1.96875 10.763 2.16927 10.6172 2.44531C10.4766 2.72135 10.3698 3.08333 10.2969 3.53125C10.224 3.97917 10.1875 4.52344 10.1875 5.16406V7.375C10.1875 7.88542 10.2109 8.33594 10.2578 8.72656C10.3099 9.11719 10.3802 9.45573 10.4688 9.74219C10.5625 10.0234 10.6771 10.2552 10.8125 10.4375C10.9479 10.6198 11.1042 10.7552 11.2812 10.8438C11.4583 10.9271 11.651 10.9688 11.8594 10.9688C12.1354 10.9688 12.375 10.901 12.5781 10.7656C12.7865 10.6302 12.9609 10.4193 13.1016 10.1328C13.2422 9.84115 13.3464 9.46875 13.4141 9.01562C13.487 8.55729 13.5234 8.01042 13.5234 7.375ZM18.5 5.60156H19.3906C19.7865 5.60156 20.1146 5.51823 20.375 5.35156C20.6354 5.17969 20.8281 4.94792 20.9531 4.65625C21.0833 4.35938 21.1484 4.02604 21.1484 3.65625C21.1484 3.21875 21.0911 2.85156 20.9766 2.55469C20.862 2.25781 20.6901 2.03385 20.4609 1.88281C20.237 1.73177 19.9531 1.65625 19.6094 1.65625C19.2865 1.65625 19.0052 1.73698 18.7656 1.89844C18.526 2.05469 18.3411 2.27865 18.2109 2.57031C18.0807 2.86198 18.0156 3.20573 18.0156 3.60156H16.6406C16.6406 3.02344 16.7604 2.4974 17 2.02344C17.2448 1.54948 17.5885 1.17188 18.0312 0.890625C18.4792 0.609375 19.0052 0.46875 19.6094 0.46875C20.1875 0.46875 20.6953 0.591146 21.1328 0.835938C21.5703 1.07552 21.9115 1.4349 22.1562 1.91406C22.4062 2.38802 22.5312 2.97917 22.5312 3.6875C22.5312 3.97396 22.4766 4.28125 22.3672 4.60938C22.263 4.93229 22.0938 5.23438 21.8594 5.51562C21.6302 5.79688 21.3281 6.02865 20.9531 6.21094C20.5833 6.38802 20.1302 6.47656 19.5938 6.47656H18.5V5.60156ZM18.5 6.78906V5.92188H19.5938C20.2292 5.92188 20.7474 6.00781 21.1484 6.17969C21.5495 6.35156 21.8594 6.58073 22.0781 6.86719C22.2969 7.15365 22.4479 7.46875 22.5312 7.8125C22.6198 8.15104 22.6641 8.48958 22.6641 8.82812C22.6641 9.35938 22.5859 9.83073 22.4297 10.2422C22.2786 10.6536 22.0625 11.0026 21.7812 11.2891C21.5052 11.5755 21.1823 11.7917 20.8125 11.9375C20.4427 12.0833 20.0391 12.1562 19.6016 12.1562C19.1745 12.1562 18.7786 12.0859 18.4141 11.9453C18.0495 11.8047 17.7292 11.6016 17.4531 11.3359C17.1771 11.0651 16.9609 10.7344 16.8047 10.3438C16.6536 9.94792 16.5781 9.4974 16.5781 8.99219H17.9609C17.9609 9.38802 18.026 9.73438 18.1562 10.0312C18.2865 10.3281 18.474 10.5599 18.7188 10.7266C18.9635 10.888 19.2578 10.9688 19.6016 10.9688C19.9453 10.9688 20.2422 10.8932 20.4922 10.7422C20.7422 10.5859 20.9349 10.3516 21.0703 10.0391C21.2109 9.72656 21.2812 9.33333 21.2812 8.85938C21.2812 8.38542 21.2031 7.9974 21.0469 7.69531C20.8958 7.38802 20.6797 7.16146 20.3984 7.01562C20.1172 6.86458 19.7812 6.78906 19.3906 6.78906H18.5Z" fill="#323232" fill-opacity="0.09"/>
</svg>
